<svg width="22" height="22" viewBox="0 0 22 22" fill="none" xmlns="http://www.w3.org/2000/svg">
<path d="M11.0002 1.83337C5.94933 1.83337 1.8335 5.94921 1.8335 11C1.8335 16.0509 5.94933 20.1667 11.0002 20.1667C16.051 20.1667 20.1668 16.0509 20.1668 11C20.1668 5.94921 16.051 1.83337 11.0002 1.83337ZM15.3177 9.81754L10.7343 14.4009C10.551 14.575 10.3218 14.6667 10.0835 14.6667C9.84516 14.6667 9.616 14.575 9.43266 14.4009L6.68267 11.6509C6.32517 11.2934 6.32517 10.7067 6.68267 10.3492C7.04017 9.99171 7.62682 9.99171 7.98432 10.3492L10.0835 12.4576L14.016 8.51591C14.3735 8.15841 14.9602 8.15841 15.3177 8.51591C15.6752 8.87341 15.6752 9.46004 15.3177 9.81754Z" fill="#3D8810"/>
</svg>
