<svg width="162" height="157" viewBox="0 0 162 157" fill="none" xmlns="http://www.w3.org/2000/svg">
<path d="M23.6722 77.1224C23.934 64.7907 28.4358 52.8961 36.4644 43.3228C44.493 33.7494 55.5894 27.0446 67.996 24.2704C80.4026 21.4962 93.4101 22.8112 104.958 28.007C116.506 33.2029 125.934 41.9826 131.749 52.9555H93.2764C93.0565 52.9509 92.8418 53.0208 92.6693 53.1531C92.4969 53.2855 92.3776 53.472 92.332 53.6805L84.1348 90.8631L83.3686 94.4709L81.9786 100.547C81.9125 100.851 81.9169 101.165 81.9918 101.467C82.0666 101.768 82.21 102.05 82.4114 102.292C82.6127 102.533 82.8671 102.728 83.156 102.862C83.4449 102.996 83.761 103.066 84.0814 103.067H120.951C121.172 103.068 121.387 102.994 121.559 102.859C121.731 102.724 121.85 102.535 121.895 102.325L124.069 91.9678C124.101 91.8331 124.102 91.6931 124.07 91.5582C124.039 91.4233 123.976 91.2972 123.887 91.1892C123.797 91.0812 123.684 90.9942 123.555 90.9347C123.426 90.8752 123.285 90.8448 123.142 90.8458H102.258C102.114 90.8462 101.973 90.8155 101.844 90.7562C101.714 90.6968 101.6 90.6102 101.509 90.5027C101.419 90.3952 101.354 90.2695 101.32 90.1348C101.286 90 101.284 89.8596 101.313 89.7238L106.659 65.3497C106.701 65.141 106.816 64.9527 106.985 64.8173C107.154 64.6818 107.366 64.6076 107.586 64.6074H149.48C149.628 64.6083 149.773 64.5769 149.906 64.5157C150.039 64.4545 150.157 64.3649 150.249 64.2538C150.342 64.1427 150.407 64.0127 150.44 63.8737C150.474 63.7347 150.475 63.5902 150.442 63.4509C146.604 47.03 136.704 32.5336 122.605 22.688C108.506 12.8425 91.1794 8.32634 73.8839 9.98904C56.5883 11.6517 40.5158 19.3787 28.6894 31.7166C16.863 44.0544 10.0976 60.153 9.66577 76.9843C9.66573 77.2378 9.76842 77.4811 9.95172 77.6619C10.135 77.8427 10.3843 77.9465 10.6459 77.951H22.7277C22.9612 77.9446 23.1847 77.8576 23.3579 77.7057C23.5311 77.5538 23.6425 77.3469 23.6722 77.1224Z" fill="#A2C617"/>
<path d="M75.5791 0.151824C60.0689 1.1363 45.1801 6.43006 32.6953 15.3993C20.2105 24.3686 10.6587 36.6333 5.18336 50.7252C-0.291987 64.8171 -1.45883 80.1391 1.82251 94.8568C5.10385 109.574 12.6943 123.064 23.6852 133.711C34.6762 144.358 48.6018 151.711 63.795 154.89C78.9882 158.068 94.8052 156.938 109.352 151.634C123.9 146.33 136.561 137.077 145.82 124.983C155.079 112.889 160.544 98.4663 161.56 83.4415C162.274 72.3237 160.54 61.1858 156.472 50.7669C152.404 40.348 146.095 30.8863 137.963 23.0096C129.832 15.133 120.065 9.02144 109.309 5.08058C98.5538 1.13972 87.0561 -0.540362 75.5791 0.151824ZM75.7573 153.785C60.7835 152.834 46.4097 147.724 34.3566 139.065C22.3036 130.406 13.082 118.566 7.79591 104.961C2.50983 91.3569 1.38324 76.5649 4.55102 62.3563C7.7188 48.1477 15.0467 35.1245 25.6575 24.8459C36.2682 14.5672 49.7122 7.46866 64.3799 4.40003C79.0476 1.3314 94.3174 2.42272 108.361 7.54335C122.405 12.664 134.628 21.5969 143.567 33.2728C152.506 44.9486 157.781 58.8725 158.762 73.3777C159.45 84.1103 157.775 94.862 153.847 104.92C149.919 114.977 143.829 124.111 135.979 131.715C128.13 139.318 118.701 145.218 108.318 149.023C97.9358 152.828 86.8367 154.451 75.7573 153.785Z" fill="#A2C617"/>
<path d="M150.708 78.0387H139.446C139.089 78.0386 138.745 78.1739 138.489 78.4158C138.232 78.6576 138.084 78.9869 138.074 79.3334C137.712 91.6203 133.142 103.442 125.085 112.937C117.027 122.433 105.939 129.064 93.5646 131.786C81.1907 134.508 68.2335 133.168 56.7321 127.975C45.2308 122.783 35.8382 114.033 30.0326 103.103H30.2108H45.1616C45.3823 103.101 45.5957 103.026 45.7671 102.891C45.9385 102.757 46.0579 102.57 46.1061 102.361L49.67 86.2555C49.7152 86.0454 49.8338 85.8567 50.0059 85.7215C50.1779 85.5863 50.3929 85.5127 50.6145 85.5132H67.5611C67.7811 85.5179 67.9958 85.448 68.1682 85.3156C68.3407 85.1832 68.46 84.9967 68.5056 84.7882L70.6796 74.9661C70.7123 74.8299 70.7124 74.6883 70.6798 74.5521C70.6473 74.416 70.5829 74.2888 70.4917 74.1805C70.4005 74.0721 70.2849 73.9855 70.1538 73.9272C70.0226 73.8688 69.8794 73.8404 69.7352 73.844H53.6973C53.5522 73.845 53.4088 73.8141 53.2778 73.7537C53.1468 73.6934 53.0316 73.6051 52.9408 73.4956C52.8499 73.386 52.7859 73.2579 52.7533 73.121C52.7208 72.9841 52.7206 72.8418 52.7529 72.7047L54.3566 65.4719C54.4018 65.2618 54.5204 65.0732 54.6925 64.9379C54.8645 64.8027 55.0795 64.7291 55.3011 64.7297H76.9166C77.1381 64.7302 77.3531 64.6566 77.5252 64.5214C77.6973 64.3861 77.8159 64.1975 77.861 63.9874L80.035 54.1825C80.0638 54.0458 80.0612 53.9047 80.0273 53.7691C79.9934 53.6335 79.9291 53.5068 79.839 53.398C79.7488 53.2893 79.635 53.2011 79.5056 53.1398C79.3763 53.0784 79.2346 53.0455 79.0906 53.0432H40.8492C40.6276 53.0427 40.4127 53.1163 40.2406 53.2515C40.0685 53.3867 39.9499 53.5753 39.9048 53.7855L31.6007 91.3651H12.783C12.5637 91.3592 12.3461 91.4036 12.1479 91.4947C11.9498 91.5859 11.7767 91.7212 11.6429 91.8895C11.5091 92.0579 11.4183 92.2546 11.3779 92.4634C11.3376 92.6723 11.3489 92.8875 11.4108 93.0913C15.327 109.445 25.2598 123.857 39.351 133.63C53.4421 143.404 70.7263 147.869 87.9702 146.191C105.214 144.513 121.236 136.807 133.039 124.514C144.843 112.222 151.618 96.1842 152.098 79.4024C152.101 79.2242 152.067 79.0472 151.998 78.8819C151.929 78.7165 151.827 78.5661 151.698 78.4392C151.568 78.3123 151.414 78.2116 151.245 78.1429C151.075 78.0741 150.893 78.0387 150.708 78.0387Z" fill="#A2C617"/>
</svg>
