<svg width="24" height="24" viewBox="0 0 24 24" fill="none" xmlns="http://www.w3.org/2000/svg">
<path d="M13.6138 8.01811C13.6775 7.55573 13.6485 7.08474 13.5286 6.63443C13.4088 6.18412 13.2006 5.76411 12.9169 5.40053C12.6333 5.03695 12.2804 4.73757 11.8801 4.521C11.4798 4.30444 11.0406 4.17531 10.59 4.14166C10.1393 4.10801 9.68679 4.17055 9.26052 4.3254C8.83425 4.48025 8.44335 4.72409 8.11214 5.04176C7.78092 5.35943 7.51647 5.74414 7.33522 6.17197C7.15398 6.59979 7.05982 7.06159 7.05859 7.52863C7.05859 7.93298 7.07918 8.37989 7.49917 8.37989C7.55886 8.38059 7.61798 8.36787 7.67244 8.34261C7.72689 8.31734 7.77538 8.28014 7.81455 8.23358C7.85372 8.18702 7.88262 8.13222 7.89927 8.07296C7.91591 8.01371 7.91989 7.95142 7.91093 7.89042C7.86101 7.52827 7.88694 7.15926 7.98696 6.80836C8.08698 6.45747 8.25876 6.13289 8.49068 5.85658C8.72259 5.58027 9.00923 5.35869 9.33118 5.20683C9.65313 5.05497 10.0029 4.97638 10.3568 4.97638C10.7107 4.97638 11.0604 5.05497 11.3824 5.20683C11.7043 5.35869 11.991 5.58027 12.2229 5.85658C12.4548 6.13289 12.6266 6.45747 12.7266 6.80836C12.8266 7.15926 12.8525 7.52827 12.8026 7.89042C12.7958 7.99679 12.8279 8.10191 12.8925 8.185C12.9571 8.2681 13.0495 8.3231 13.1515 8.33915C13.2534 8.3552 13.3575 8.33112 13.4431 8.27167C13.5287 8.21223 13.5896 8.12174 13.6138 8.01811Z" fill="#A2C617"/>
<path d="M10.3529 2.84663C11.0441 2.84668 11.7261 3.01026 12.3468 3.32485C12.9674 3.63945 13.5101 4.0967 13.9334 4.6616C14.3567 5.22649 14.6493 5.88403 14.7887 6.58385C14.9282 7.28368 14.9109 8.00722 14.7381 8.69905C14.7108 8.80854 14.7267 8.92477 14.7823 9.02215C14.8379 9.11953 14.9286 9.19009 15.0345 9.21832C15.1405 9.24654 15.2529 9.2301 15.3471 9.17263C15.4413 9.11516 15.5096 9.02136 15.5369 8.91186C15.7403 8.09442 15.7602 7.2397 15.5949 6.41312C15.4296 5.58653 15.0835 4.80999 14.5832 4.14293C14.0829 3.47586 13.4416 2.93596 12.7084 2.56453C11.9751 2.1931 11.1694 2 10.3529 2C9.5363 2 8.73057 2.1931 7.99733 2.56453C7.26409 2.93596 6.62278 3.47586 6.12247 4.14293C5.62216 4.80999 5.27611 5.58653 5.11082 6.41312C4.94553 7.2397 4.96537 8.09442 5.16882 8.91186C5.19612 9.02136 5.26439 9.11516 5.35859 9.17263C5.40524 9.20109 5.45685 9.21977 5.51048 9.22761C5.56412 9.23545 5.61871 9.23229 5.67117 9.21832C5.72362 9.20434 5.77289 9.17983 5.81618 9.14617C5.85946 9.11251 5.89591 9.07037 5.92344 9.02215C5.95097 8.97393 5.96904 8.92058 5.97662 8.86514C5.9842 8.8097 5.98115 8.75326 5.96763 8.69905C5.79482 8.00722 5.77749 7.28368 5.91697 6.58385C6.05644 5.88403 6.34902 5.22649 6.7723 4.6616C7.19557 4.0967 7.73831 3.63945 8.35894 3.32485C8.97957 3.01026 9.66162 2.84668 10.3529 2.84663Z" fill="#A2C617"/>
<path d="M17.8303 12.2103C17.6626 12.201 17.4949 12.2272 17.3373 12.2872C17.1798 12.3472 17.0357 12.4398 16.9139 12.5593C16.7922 12.6788 16.6952 12.8228 16.6291 12.9823C16.5629 13.1418 16.5289 13.3136 16.5292 13.4872V12.2103C16.5292 11.8717 16.399 11.5469 16.1674 11.3074C15.9357 11.0679 15.6215 10.9334 15.2939 10.9334C14.9663 10.9334 14.6521 11.0679 14.4204 11.3074C14.1888 11.5469 14.0586 11.8717 14.0586 12.2103V11.359C14.0586 11.0204 13.9285 10.6956 13.6968 10.4561C13.4652 10.2167 13.151 10.0822 12.8233 10.0822C12.4957 10.0822 12.1815 10.2167 11.9499 10.4561C11.7182 10.6956 11.5881 11.0204 11.5881 11.359V8.02636C11.5946 7.69022 11.4775 7.36403 11.2605 7.11362C11.0435 6.86321 10.7426 6.70722 10.4187 6.67711C10.251 6.66785 10.0833 6.69403 9.9257 6.75404C9.76814 6.81405 9.62407 6.90664 9.5023 7.02615C9.38052 7.14565 9.28359 7.28957 9.21744 7.4491C9.15128 7.60863 9.11728 7.78043 9.11752 7.954V14.3385C9.11752 12.5338 6.64697 12.023 6.64697 13.4872V16.8922C6.64697 18.2468 7.16755 19.546 8.09419 20.5038C9.02082 21.4617 10.2776 21.9998 11.5881 21.9998H14.0586C15.3691 21.9998 16.6259 21.4617 17.5525 20.5038C18.4791 19.546 18.9997 18.2468 18.9997 16.8922V13.5596C19.0062 13.2234 18.8892 12.8972 18.6721 12.6468C18.4551 12.3964 18.1543 12.2404 17.8303 12.2103Z" fill="#A2C617"/>
</svg>
