<svg width="233" height="67" viewBox="0 0 233 67" fill="none" xmlns="http://www.w3.org/2000/svg">
<path d="M10.7691 32.4947C10.8772 27.2992 12.7356 22.2879 16.0499 18.2545C19.3642 14.2212 23.9449 11.3963 29.0665 10.2275C34.1882 9.05872 39.5578 9.61274 44.325 11.8018C49.0921 13.9909 52.9842 17.6899 55.3848 22.3129H39.5026C39.4118 22.311 39.3232 22.3404 39.252 22.3962C39.1808 22.4519 39.1316 22.5305 39.1127 22.6184L35.7289 38.2838L35.4125 39.8038L34.8388 42.3638C34.8114 42.4917 34.8133 42.6241 34.8442 42.7512C34.8751 42.8784 34.9342 42.9971 35.0174 43.0988C35.1005 43.2005 35.2055 43.2826 35.3248 43.3391C35.444 43.3957 35.5745 43.4252 35.7068 43.4256H50.9269C51.0184 43.4258 51.1071 43.3949 51.1781 43.3379C51.2492 43.2809 51.2981 43.2014 51.3168 43.1129L52.2142 38.7493C52.2276 38.6925 52.2277 38.6335 52.2147 38.5767C52.2016 38.5199 52.1757 38.4667 52.1389 38.4212C52.1021 38.3757 52.0553 38.339 52.0021 38.314C51.9489 38.2889 51.8906 38.2761 51.8317 38.2765H43.2102C43.1511 38.2767 43.0927 38.2638 43.0392 38.2388C42.9858 38.2138 42.9387 38.1773 42.9013 38.132C42.864 38.0867 42.8373 38.0337 42.8233 37.977C42.8093 37.9202 42.8082 37.861 42.8203 37.8038L45.0272 27.5347C45.0443 27.4468 45.0918 27.3675 45.1616 27.3104C45.2314 27.2533 45.3191 27.2221 45.4097 27.222H62.7043C62.7651 27.2223 62.8252 27.2091 62.8802 27.1833C62.9351 27.1575 62.9835 27.1198 63.0217 27.073C63.0598 27.0262 63.0868 26.9714 63.1007 26.9129C63.1145 26.8543 63.1148 26.7934 63.1015 26.7347C61.5169 19.8164 57.4302 13.7089 51.6099 9.56085C45.7897 5.41281 38.637 3.51011 31.4971 4.21062C24.3573 4.91114 17.7224 8.16659 12.8403 13.3647C7.95816 18.5628 5.16533 25.3453 4.98706 32.4365C4.98704 32.5433 5.02943 32.6458 5.10511 32.722C5.18078 32.7982 5.28368 32.8419 5.39165 32.8438H10.3792C10.4756 32.8411 10.5679 32.8045 10.6393 32.7405C10.7108 32.6764 10.7568 32.5893 10.7691 32.4947Z" fill="#A2C617"/>
<path d="M32.1976 0.0659182C25.7948 0.480692 19.6485 2.71101 14.4946 6.48987C9.34072 10.2687 5.39761 15.436 3.13732 21.3731C0.877023 27.3102 0.395333 33.7655 1.74991 39.9662C3.10449 46.167 6.23794 51.8504 10.7751 56.336C15.3123 60.8217 21.061 63.9196 27.3329 65.2588C33.6049 66.598 40.1343 66.1217 46.1396 63.8871C52.1449 61.6525 57.3715 57.7541 61.1938 52.6588C65.016 47.5634 67.272 41.4869 67.6915 35.1568C67.9865 30.4728 67.2705 25.7803 65.5911 21.3907C63.9117 17.0011 61.3073 13.0147 57.9506 9.69619C54.594 6.37765 50.5619 3.80279 46.1219 2.14246C41.6818 0.48213 36.9354 -0.225708 32.1976 0.0659182ZM32.2711 64.7932C26.0898 64.3929 20.1561 62.2398 15.1804 58.5917C10.2048 54.9436 6.39797 49.9551 4.21581 44.2234C2.03365 38.4917 1.56858 32.2597 2.87628 26.2734C4.18398 20.2871 7.20903 14.8003 11.5893 10.4698C15.9695 6.13929 21.5194 3.14859 27.5744 1.85574C33.6294 0.562886 39.933 1.02267 45.7305 3.18006C51.5281 5.33744 56.5739 9.101 60.2639 14.0202C63.9539 18.9393 66.1317 24.8056 66.5366 30.9168C66.8207 35.4386 66.1291 39.9684 64.5076 44.2058C62.8861 48.4432 60.3718 52.2913 57.1315 55.4949C53.8911 58.6984 49.9988 61.1842 45.7128 62.7873C41.4267 64.3904 36.8449 65.0741 32.2711 64.7932Z" fill="#A2C617"/>
<path d="M63.212 32.8803H58.5629C58.4152 32.8802 58.2733 32.9372 58.1675 33.0391C58.0617 33.141 58.0003 33.2797 57.9965 33.4257C57.8469 38.6024 55.9605 43.5829 52.6342 47.5835C49.3079 51.5841 44.7305 54.3777 39.6223 55.5247C34.5142 56.6716 29.1653 56.1068 24.4174 53.9192C19.6695 51.7315 15.7921 48.0452 13.3955 43.4403H13.469H19.6409C19.732 43.4392 19.8201 43.4077 19.8909 43.3509C19.9616 43.2942 20.0109 43.2155 20.0308 43.1275L21.5021 36.3421C21.5207 36.2536 21.5697 36.1741 21.6407 36.1171C21.7117 36.0601 21.8005 36.0291 21.8919 36.0294H28.8877C28.9785 36.0313 29.0672 36.0019 29.1384 35.9461C29.2095 35.8903 29.2588 35.8117 29.2776 35.7239L30.1751 31.5857C30.1886 31.5284 30.1886 31.4687 30.1752 31.4113C30.1617 31.354 30.1352 31.3004 30.0975 31.2547C30.0599 31.2091 30.0122 31.1726 29.958 31.148C29.9039 31.1234 29.8448 31.1115 29.7852 31.113H23.1646C23.1047 31.1134 23.0455 31.1004 22.9914 31.075C22.9373 31.0495 22.8898 31.0123 22.8523 30.9662C22.8148 30.92 22.7883 30.8661 22.7749 30.8084C22.7614 30.7507 22.7614 30.6907 22.7747 30.633L23.4368 27.5857C23.4554 27.4972 23.5044 27.4177 23.5754 27.3608C23.6464 27.3038 23.7352 27.2728 23.8266 27.273H32.7498C32.8412 27.2732 32.93 27.2422 33.001 27.1853C33.0721 27.1283 33.121 27.0488 33.1397 26.9603L34.0371 22.8294C34.049 22.7718 34.0479 22.7123 34.0339 22.6552C34.02 22.5981 33.9934 22.5447 33.9562 22.4989C33.919 22.453 33.872 22.4159 33.8186 22.39C33.7652 22.3642 33.7067 22.3503 33.6472 22.3494H17.8607C17.7692 22.3491 17.6805 22.3801 17.6095 22.4371C17.5384 22.4941 17.4895 22.5736 17.4708 22.6621L14.0428 38.4948H6.27461C6.18409 38.4923 6.09426 38.511 6.01246 38.5494C5.93066 38.5879 5.85922 38.6448 5.80397 38.7158C5.74873 38.7867 5.71125 38.8696 5.6946 38.9576C5.67795 39.0456 5.6826 39.1362 5.70818 39.2221C7.32483 46.1122 11.4252 52.184 17.2422 56.3016C23.0592 60.4192 30.1944 62.3006 37.3129 61.5937C44.4313 60.8868 51.0455 57.6401 55.918 52.461C60.7905 47.2819 63.5875 40.5252 63.7858 33.4548C63.7868 33.3797 63.7727 33.3052 63.7443 33.2355C63.7159 33.1658 63.6738 33.1024 63.6204 33.049C63.567 32.9955 63.5034 32.9531 63.4333 32.9241C63.3632 32.8952 63.288 32.8803 63.212 32.8803Z" fill="#A2C617"/>
<path d="M228.099 15.699C227.13 15.699 226.183 15.9843 225.378 16.5188C224.572 17.0532 223.944 17.8129 223.574 18.7018C223.203 19.5906 223.106 20.5686 223.295 21.5122C223.484 22.4558 223.95 23.3225 224.635 24.0028C225.321 24.6831 226.193 25.1464 227.144 25.3341C228.094 25.5217 229.079 25.4254 229.974 25.0573C230.869 24.6891 231.634 24.0656 232.172 23.2657C232.711 22.4658 232.998 21.5253 232.998 20.5632C232.998 19.2732 232.482 18.0359 231.563 17.1237C230.644 16.2115 229.398 15.699 228.099 15.699ZM228.099 24.4581C227.323 24.4581 226.565 24.2297 225.92 23.8017C225.275 23.3737 224.772 22.7654 224.476 22.0537C224.179 21.3421 224.101 20.5589 224.252 19.8034C224.404 19.0479 224.777 18.3539 225.326 17.8092C225.874 17.2645 226.573 16.8935 227.334 16.7432C228.095 16.593 228.884 16.6701 229.6 16.9649C230.317 17.2597 230.93 17.7589 231.361 18.3994C231.791 19.0399 232.022 19.7929 232.022 20.5632C232.022 21.0747 231.92 21.5812 231.723 22.0537C231.526 22.5263 231.237 22.9557 230.873 23.3173C230.509 23.679 230.076 23.9659 229.6 24.1616C229.124 24.3574 228.614 24.4581 228.099 24.4581Z" fill="#A2C617"/>
<path d="M228.903 20.7604C229.182 20.6398 229.42 20.4398 229.585 20.1856C229.74 19.9259 229.82 19.6294 229.818 19.3277C229.828 18.9629 229.705 18.6068 229.473 18.324C229.253 18.0544 228.949 17.8644 228.609 17.7835C228.198 17.7177 227.781 17.6918 227.365 17.7063H226.086V23.4113H227.062V21.0092L228.868 23.3255L228.937 23.4113H230.147L228.229 20.9406C228.462 20.9166 228.689 20.8558 228.903 20.7604ZM227.037 19.9969V18.65H227.745C227.98 18.6354 228.217 18.6585 228.445 18.7186C228.555 18.7711 228.65 18.8509 228.721 18.9503C228.791 19.0573 228.828 19.1828 228.825 19.3106C228.828 19.441 228.792 19.5694 228.721 19.6795C228.653 19.7901 228.55 19.8748 228.427 19.9197C228.201 19.9871 227.964 20.0161 227.728 20.0055L227.037 19.9969Z" fill="#A2C617"/>
<path d="M82.5161 46.4803H76.7709C76.6831 46.4809 76.5964 46.462 76.517 46.4249C76.4375 46.3878 76.3675 46.3336 76.312 46.2661C76.2565 46.1986 76.2169 46.1196 76.1961 46.035C76.1754 45.9503 76.174 45.8621 76.192 45.7769L80.5118 25.8822C80.5393 25.752 80.6109 25.6351 80.7146 25.5508C80.8183 25.4666 80.948 25.42 81.082 25.419H96.3479C96.4365 25.4181 96.5242 25.4372 96.6044 25.4747C96.6846 25.5123 96.7551 25.5674 96.8108 25.6359C96.8665 25.7044 96.9059 25.7845 96.9259 25.8703C96.946 25.956 96.9463 26.0452 96.9267 26.131L96.0887 29.9058C96.0608 30.0374 95.9879 30.1555 95.8824 30.2399C95.7769 30.3243 95.6453 30.3699 95.5098 30.369H86.8704C86.736 30.3685 86.6055 30.4144 86.5015 30.499C86.3974 30.5835 86.3263 30.7013 86.3002 30.8323L85.7213 33.5004C85.7034 33.5849 85.7046 33.6724 85.7249 33.7564C85.7452 33.8404 85.784 33.9189 85.8386 33.9863C85.8931 34.0536 85.9621 34.108 86.0404 34.1456C86.1187 34.1833 86.2045 34.2031 86.2915 34.2038H92.4428C92.5306 34.2032 92.6173 34.2222 92.6967 34.2593C92.7761 34.2963 92.8462 34.3506 92.9017 34.4181C92.9572 34.4856 92.9968 34.5645 93.0176 34.6492C93.0383 34.7338 93.0397 34.822 93.0217 34.9073L92.2096 38.6563C92.1802 38.7872 92.1069 38.9044 92.0018 38.9885C91.8966 39.0727 91.7658 39.1189 91.6307 39.1196H84.987C84.8515 39.1187 84.7199 39.1643 84.6144 39.2487C84.5089 39.3332 84.436 39.4512 84.4081 39.5828L83.1295 46.0171C83.1006 46.1547 83.0227 46.2774 82.91 46.3625C82.7973 46.4477 82.6574 46.4895 82.5161 46.4803Z" fill="#A2C617"/>
<path d="M117.057 25.4188H122.81C122.898 25.4193 122.985 25.4393 123.064 25.4774C123.143 25.5155 123.213 25.5708 123.268 25.6391C123.322 25.7075 123.361 25.7871 123.38 25.8722C123.4 25.9573 123.4 26.0457 123.381 26.1309L120.97 37.2836C120.607 39.2563 119.84 41.1339 118.715 42.7998C117.711 44.2157 116.32 45.317 114.707 45.974C112.802 46.7227 110.768 47.0929 108.72 47.0636C107.132 47.1017 105.548 46.8874 104.028 46.4287C102.865 46.0702 101.854 45.3404 101.151 44.3526C100.448 43.2309 100.105 41.9235 100.167 40.6036C100.17 40.2794 100.193 39.9557 100.236 39.6342C100.236 39.2739 100.391 38.6047 100.573 37.6353C100.754 36.6659 102.352 28.962 103.009 25.9164C103.037 25.7839 103.109 25.6648 103.214 25.579C103.32 25.4931 103.451 25.4457 103.588 25.4446H109.35C109.438 25.4465 109.524 25.4676 109.602 25.5062C109.68 25.5448 109.749 25.6 109.803 25.668C109.858 25.7359 109.896 25.8149 109.917 25.8993C109.937 25.9838 109.938 26.0716 109.92 26.1566C109.154 29.7941 108.391 33.4373 107.631 37.0862C107.38 38.2873 106.637 40.1918 107.631 41.247C107.906 41.5073 108.246 41.6908 108.616 41.7789C109.449 42.0241 110.341 41.9888 111.152 41.6785C111.963 41.3681 112.648 40.8002 113.1 40.0631C113.449 39.4201 113.699 38.7291 113.843 38.0128L116.435 25.865C116.469 25.7298 116.55 25.6109 116.664 25.5293C116.778 25.4477 116.917 25.4086 117.057 25.4188Z" fill="#A2C617"/>
<path d="M136.444 25.7707L140.582 35.096C140.633 35.2098 140.72 35.3043 140.83 35.3655C140.939 35.4267 141.066 35.4515 141.19 35.4361C141.315 35.4207 141.431 35.3661 141.522 35.2802C141.614 35.1943 141.675 35.0816 141.696 34.9588L143.493 25.8822C143.523 25.7513 143.596 25.6342 143.701 25.55C143.806 25.4658 143.937 25.4196 144.072 25.4189H149.532C149.62 25.4194 149.707 25.4394 149.786 25.4775C149.865 25.5156 149.935 25.5709 149.989 25.6392C150.044 25.7076 150.083 25.7872 150.102 25.8723C150.122 25.9574 150.122 26.0458 150.103 26.131L145.783 46.017C145.755 46.1487 145.682 46.2667 145.577 46.3512C145.471 46.4356 145.34 46.4812 145.204 46.4803H139.554C139.441 46.4804 139.33 46.448 139.235 46.3871C139.14 46.3263 139.065 46.2395 139.018 46.1371L134.88 36.829C134.828 36.7151 134.74 36.6208 134.63 36.5601C134.52 36.4994 134.393 36.4755 134.268 36.4918C134.143 36.5082 134.027 36.5639 133.937 36.6509C133.846 36.7379 133.786 36.8514 133.765 36.9748L131.968 46.017C131.941 46.1487 131.868 46.2667 131.762 46.3512C131.657 46.4356 131.525 46.4812 131.39 46.4803H125.938C125.85 46.4809 125.764 46.462 125.684 46.4249C125.605 46.3878 125.535 46.3335 125.479 46.2661C125.424 46.1986 125.384 46.1196 125.363 46.035C125.343 45.9503 125.341 45.8621 125.359 45.7768L129.679 25.8822C129.708 25.7513 129.782 25.6342 129.887 25.55C129.992 25.4658 130.123 25.4196 130.258 25.4189H135.908C136.022 25.4196 136.133 25.4532 136.229 25.5157C136.324 25.5782 136.398 25.6668 136.444 25.7707Z" fill="#A2C617"/>
<path d="M180.116 46.4802H174.708C174.607 46.4788 174.508 46.4516 174.421 46.4014C174.334 46.3511 174.261 46.2795 174.21 46.1934C174.159 46.1072 174.131 46.0095 174.129 45.9095C174.127 45.8095 174.15 45.7106 174.198 45.6223L185.662 25.7363C185.712 25.6453 185.786 25.5693 185.876 25.5165C185.965 25.4636 186.068 25.4358 186.172 25.436H192.401C192.542 25.4386 192.678 25.4909 192.784 25.5836C192.89 25.6763 192.959 25.8034 192.98 25.9422L195.874 45.8282C195.887 45.911 195.881 45.9954 195.857 46.0758C195.834 46.1562 195.794 46.2307 195.739 46.2942C195.684 46.3576 195.616 46.4086 195.539 46.4437C195.463 46.4788 195.38 46.4971 195.295 46.4974H189.593C189.445 46.4958 189.303 46.4396 189.195 46.3397C189.086 46.2398 189.019 46.1034 189.006 45.9569L188.885 44.2411C188.872 44.0947 188.805 43.9582 188.696 43.8583C188.588 43.7584 188.445 43.7022 188.297 43.7007H182.25C182.141 43.6999 182.034 43.7292 181.941 43.7852C181.848 43.8413 181.772 43.9219 181.723 44.0181L180.643 46.2057C180.588 46.2939 180.51 46.3659 180.417 46.4141C180.324 46.4624 180.22 46.4852 180.116 46.4802ZM188.496 38.682L188.081 33.8606C188.071 33.733 188.018 33.6125 187.932 33.5175C187.846 33.4225 187.73 33.3583 187.603 33.3349C187.477 33.3115 187.346 33.3301 187.231 33.3879C187.116 33.4457 187.023 33.5394 186.967 33.6547L184.582 38.4846C184.531 38.5738 184.505 38.6749 184.507 38.7774C184.509 38.8799 184.538 38.98 184.592 39.0676C184.645 39.1551 184.722 39.2267 184.813 39.2751C184.904 39.3234 185.006 39.3467 185.109 39.3425H187.909C187.996 39.3484 188.083 39.335 188.164 39.3032C188.245 39.2715 188.318 39.2222 188.378 39.159C188.437 39.0957 188.482 39.0201 188.508 38.9376C188.535 38.8551 188.542 38.7678 188.531 38.682H188.496Z" fill="#A2C617"/>
<path d="M210.994 39.1367H209.266C209.131 39.1374 209 39.1836 208.895 39.2678C208.789 39.3519 208.716 39.4691 208.687 39.6L207.296 46.017C207.27 46.148 207.199 46.2659 207.095 46.3504C206.991 46.4349 206.86 46.4809 206.726 46.4803H200.972C200.884 46.4809 200.797 46.462 200.718 46.4249C200.638 46.3878 200.568 46.3335 200.513 46.2661C200.457 46.1986 200.418 46.1196 200.397 46.035C200.376 45.9503 200.375 45.8621 200.393 45.7768L204.713 25.8822C204.742 25.7513 204.815 25.6342 204.92 25.55C205.026 25.4658 205.156 25.4196 205.292 25.4189H214.795C217.784 25.4189 219.918 25.7707 221.205 26.457C221.818 26.7557 222.328 27.228 222.671 27.8143C223.014 28.4006 223.174 29.0746 223.132 29.7513C223.134 30.7603 222.938 31.76 222.553 32.6939C222.182 33.6257 221.606 34.4637 220.868 35.1475C220.138 35.8281 219.247 36.3149 218.277 36.563C218.803 36.7671 219.314 37.0079 219.806 37.2837C220.17 37.5048 220.469 37.8188 220.67 38.193C220.902 38.6892 221.012 39.2334 220.989 39.7801C220.921 40.7689 220.785 41.752 220.583 42.7227C220.324 44.224 220.186 45.039 220.186 45.1677C220.194 45.35 220.22 45.531 220.264 45.7082C220.284 45.8008 220.284 45.8968 220.262 45.9892C220.241 46.0816 220.198 46.168 220.139 46.2421C220.079 46.3161 220.003 46.376 219.917 46.4172C219.831 46.4584 219.737 46.48 219.642 46.4803H217.171C216.151 46.4803 215.132 46.4803 214.112 46.4803C213.978 46.4863 213.845 46.4508 213.732 46.3785C213.619 46.3063 213.532 46.201 213.482 46.0771C213.456 45.941 213.456 45.8014 213.482 45.6653C213.549 44.8387 213.664 44.0166 213.827 43.2031C214.003 42.4855 214.11 41.753 214.147 41.0155C214.183 40.7326 214.14 40.4453 214.023 40.185C213.906 39.9247 213.718 39.7015 213.482 39.5399C212.697 39.2086 211.844 39.0703 210.994 39.1367ZM210.648 30.798L209.991 33.8092C209.972 33.8943 209.972 33.9827 209.992 34.0678C210.011 34.153 210.05 34.2326 210.105 34.301C210.159 34.3693 210.229 34.4246 210.308 34.4627C210.387 34.5008 210.474 34.5208 210.562 34.5212H212.575C215.115 34.5212 216.376 33.6633 216.376 32.0333C216.376 30.8895 215.581 30.3175 213.991 30.3175H211.218C211.079 30.3058 210.94 30.3446 210.827 30.4266C210.715 30.5086 210.636 30.6283 210.605 30.7636L210.648 30.798Z" fill="#A2C617"/>
<path d="M174.086 25.419H156.894C156.758 25.4197 156.628 25.4659 156.522 25.5501C156.417 25.6343 156.344 25.7514 156.315 25.8823L151.874 46.1372C151.921 46.2396 151.996 46.3264 152.091 46.3872C152.186 46.4481 152.297 46.4805 152.41 46.4804H168.971C169.07 46.4851 169.168 46.4574 169.249 46.4016C169.33 46.3458 169.39 46.2649 169.421 46.1716L170.475 41.8392C170.484 41.7773 170.479 41.7141 170.461 41.6543C170.442 41.5946 170.409 41.5399 170.366 41.4944C170.323 41.4489 170.27 41.4138 170.211 41.3918C170.152 41.3698 170.088 41.3614 170.025 41.3673H159.9C159.812 41.3671 159.725 41.3434 159.65 41.2987L162.06 30.6436C162.09 30.5503 162.151 30.4694 162.232 30.4136C162.313 30.3578 162.411 30.3301 162.509 30.3348H173.041C173.139 30.3395 173.237 30.3118 173.318 30.256C173.399 30.2001 173.46 30.1193 173.49 30.0259L174.544 25.8909C174.554 25.8282 174.549 25.7641 174.529 25.7037C174.51 25.6432 174.477 25.588 174.433 25.5423C174.388 25.4966 174.334 25.4618 174.274 25.4404C174.214 25.419 174.149 25.4117 174.086 25.419Z" fill="#A2C617"/>
</svg>
