<svg width="24" height="24" viewBox="0 0 24 24" fill="none" xmlns="http://www.w3.org/2000/svg">
<g clip-path="url(#clip0_186_77)">
<path d="M12 24C18.6274 24 24 18.6274 24 12C24 5.37258 18.6274 0 12 0C5.37258 0 0 5.37258 0 12C0 18.6274 5.37258 24 12 24Z" fill="#0187CE"/>
<path d="M5.1286 10.954L17.1009 6.0599C17.6566 5.84706 18.1419 6.20362 17.9618 7.09446L17.9629 7.09336L15.9244 17.2755C15.7733 17.9974 15.3687 18.1729 14.8027 17.8328L11.6984 15.4072L10.201 16.9365C10.0355 17.1121 9.89579 17.2602 9.57501 17.2602L9.79542 13.9107L15.5487 8.40001C15.7992 8.16633 15.4929 8.03467 15.1628 8.26726L8.05286 13.0133L4.98787 11.9996C4.32251 11.7758 4.30802 11.2941 5.1286 10.954Z" fill="white"/>
</g>
<defs>
<clipPath id="clip0_186_77">
<rect width="24" height="24" fill="white"/>
</clipPath>
</defs>
</svg>
