<svg width="24" height="24" viewBox="0 0 24 24" fill="none" xmlns="http://www.w3.org/2000/svg">
<g clip-path="url(#clip0_186_80)">
<path d="M12.003 0H11.997C5.3805 0 0 5.382 0 12C0 14.625 0.846 17.058 2.2845 19.0335L0.789 23.4915L5.4015 22.017C7.299 23.274 9.5625 24 12.003 24C18.6195 24 24 18.6165 24 12C24 5.3835 18.6195 0 12.003 0Z" fill="#CA69E2"/>
<path d="M17.1011 10.6748C17.1179 8.65041 15.3938 6.79471 13.2581 6.53781C13.212 6.53206 13.166 6.52505 13.1202 6.51681C13.0129 6.49626 12.904 6.48455 12.7947 6.48181C12.3565 6.48181 12.2396 6.78981 12.2088 6.97251C12.1787 7.15101 12.2074 7.30151 12.2935 7.41841C12.4384 7.61511 12.6939 7.65011 12.899 7.67811C12.9585 7.68651 13.0152 7.69421 13.0628 7.70471C14.9822 8.13381 15.6283 8.80791 15.944 10.7112C15.9517 10.7574 15.9552 10.8148 15.9594 10.8757C15.9734 11.1032 16.0014 11.5764 16.5103 11.5764C16.5523 11.5764 16.5985 11.5729 16.6461 11.5659C17.1193 11.4938 17.1046 11.0612 17.0976 10.8533C17.0955 10.7945 17.0934 10.7392 17.099 10.7021C17.1002 10.6928 17.1006 10.6835 17.1004 10.6741L17.1011 10.6748Z" fill="white"/>
<path d="M12.6702 5.7951C12.7276 5.7993 12.7808 5.8035 12.8256 5.8098C15.9777 6.2949 17.4274 7.788 17.8285 10.9646C17.8355 11.0185 17.8369 11.0843 17.8376 11.1536C17.8418 11.4021 17.8502 11.9187 18.4046 11.9292H18.4214C18.5957 11.9292 18.7336 11.8767 18.833 11.7731C19.0052 11.5932 18.994 11.3251 18.9835 11.1095C18.9814 11.0563 18.9793 11.0066 18.9793 10.9625C19.0199 7.7145 16.2073 4.7682 12.9621 4.659C12.9481 4.659 12.9355 4.659 12.9229 4.6611C12.9102 4.66271 12.8973 4.66342 12.8844 4.6632C12.8515 4.6632 12.8123 4.6604 12.7696 4.6576C12.7192 4.6541 12.6611 4.6499 12.6016 4.6499C12.085 4.6499 11.987 5.0174 11.9744 5.2365C11.9457 5.7426 12.435 5.7783 12.6702 5.7951ZM17.6766 15.0701C17.609 15.0187 17.542 14.9664 17.4757 14.9133C17.1313 14.6361 16.7652 14.3813 16.4117 14.1342L16.1912 13.9802C15.7376 13.6617 15.3302 13.507 14.9452 13.507C14.4258 13.507 13.9736 13.794 13.5998 14.3589C13.4346 14.6095 13.2337 14.7313 12.9866 14.7313C12.815 14.7253 12.6466 14.6831 12.4924 14.6074C11.0294 13.9438 9.98365 12.926 9.38585 11.5827C9.09675 10.9331 9.19055 10.5089 9.69875 10.1631C9.98785 9.9671 10.5247 9.6024 10.4876 8.9031C10.4442 8.11 8.69355 5.7223 7.95575 5.4514C7.64034 5.33635 7.29461 5.33536 6.97855 5.4486C6.13085 5.7335 5.52325 6.2347 5.21875 6.8962C4.92475 7.536 4.93875 8.2871 5.25655 9.0683C6.17705 11.3272 7.47065 13.297 9.10235 14.9224C10.699 16.5135 12.6618 17.8162 14.9354 18.7955C15.1405 18.8837 15.3554 18.932 15.5129 18.967C15.5661 18.9789 15.6123 18.9894 15.6459 18.9985C15.6644 19.0035 15.6835 19.0061 15.7026 19.0062H15.7208C16.7904 19.0062 18.0749 18.029 18.469 16.9153C18.8148 15.9395 18.1834 15.4572 17.6766 15.0701ZM13.1434 8.376C12.9607 8.3802 12.5792 8.39 12.4455 8.7778C12.3825 8.9598 12.3902 9.1166 12.4679 9.2461C12.5813 9.4351 12.799 9.4939 12.9964 9.5261C13.7139 9.6409 14.0828 10.0371 14.1563 10.7742C14.1906 11.1172 14.4223 11.3573 14.7184 11.3573C14.7409 11.3573 14.7634 11.3559 14.7856 11.3531C15.1426 11.3111 15.3155 11.0486 15.3001 10.5733C15.3057 10.0777 15.0467 9.5149 14.605 9.0669C14.1626 8.6175 13.6292 8.3641 13.1434 8.376Z" fill="white"/>
</g>
<defs>
<clipPath id="clip0_186_80">
<rect width="24" height="24" fill="white"/>
</clipPath>
</defs>
</svg>
